<svg xmlns="http://www.w3.org/2000/svg" width="16.83" height="19.234" viewBox="0 0 16.83 19.234"><defs><style>.a{fill:#013145;}</style></defs><path class="a" d="M2.4,8.415V6.01a1.2,1.2,0,0,0-2.4,0v2.4a1.2,1.2,0,0,0,2.4,0ZM13.189,2.4a2.4,2.4,0,0,0-2.4-2.4H5.977A2.4,2.4,0,0,0,3.606,2.4V9.617H13.19Zm2.438,2.4a1.2,1.2,0,0,0-1.2,1.2v2.4a1.2,1.2,0,0,0,2.4,0V6.01A1.206,1.206,0,0,0,15.627,4.808Zm-.466,6.833a1.192,1.192,0,0,0-1.138-.823H2.81a1.2,1.2,0,0,0-1.141.822l-.4,1.2A1.2,1.2,0,0,0,2.37,14.425H7.213v2.531a3.558,3.558,0,0,0-2.325,1.4.6.6,0,0,0,.563.878h5.928a.6.6,0,0,0,.563-.878,3.558,3.558,0,0,0-2.325-1.4V14.425h4.808a1.2,1.2,0,0,0,1.141-1.583Z"/></svg>