<svg xmlns="http://www.w3.org/2000/svg" width="19.207" height="17.073" viewBox="0 0 19.207 17.073"><defs><style>.a{fill:#063347;}</style></defs><path class="a" d="M9.07,1.657V15.472H3.735V3.094Zm1.6,13.815V1.414A1.415,1.415,0,0,0,9.257,0,1.37,1.37,0,0,0,8.89.05l-5.572,1.5A1.606,1.606,0,0,0,2.134,3.094V15.472H.8a.8.8,0,1,0,0,1.6h9.87ZM7.469,9.6c.44,0,.8-.48.8-1.067s-.36-1.067-.8-1.067-.8.48-.8,1.067S7.026,9.6,7.469,9.6Zm4.268-5.869h3.468A.268.268,0,0,1,15.472,4V16.272a.8.8,0,0,0,.8.8h2.134a.8.8,0,0,0,0-1.6H17.073V4a1.869,1.869,0,0,0-1.867-1.867H11.738Z"/></svg>