<svg xmlns="http://www.w3.org/2000/svg" width="19.493" height="18.768" viewBox="0 0 19.493 18.768"><defs><style>.a{fill:#013145;}</style></defs><path class="a" d="M123.517,214.08a2.4,2.4,0,1,1-2.4-2.4,2.4,2.4,0,0,1,2.4,2.4" transform="translate(-117.44 -204.788)"/><path class="a" d="M88.425,360.64H86.64a2.533,2.533,0,0,0-2.523,2.256l-.267,2.051a.519.519,0,0,0,.41.574,15.3,15.3,0,0,0,3.261.328q.708,0,1.354-.062l.226-1.846a3.618,3.618,0,0,1,1.292-2.359,2.531,2.531,0,0,0-1.969-.944Z" transform="translate(-83.845 -348.292)"/><path class="a" d="M455.037,214.08a2.4,2.4,0,1,1-2.4-2.4,2.4,2.4,0,0,1,2.4,2.4" transform="translate(-436.817 -204.788)"/><path class="a" d="M443.659,362.334a2.548,2.548,0,0,0-2.523-2.256h-1.784a2.528,2.528,0,0,0-1.99.964,3.534,3.534,0,0,1,1.292,2.359l.226,1.846c.431.041.9.062,1.354.062a16.585,16.585,0,0,0,3.261-.328.537.537,0,0,0,.41-.575Z" transform="translate(-424.414 -347.751)"/><path class="a" d="M254.166,393.68h-1.784a2.532,2.532,0,0,0-2.523,2.236l-.246,2.072a.507.507,0,0,0,.41.574,15.292,15.292,0,0,0,3.261.328,16.579,16.579,0,0,0,3.261-.328.536.536,0,0,0,.41-.574l-.246-2.072A2.567,2.567,0,0,0,254.166,393.68Z" transform="translate(-243.536 -380.122)"/><path class="a" d="M289.28,247.12a2.4,2.4,0,1,1-2.4-2.4,2.4,2.4,0,0,1,2.4,2.4" transform="translate(-277.131 -236.618)"/><path class="a" d="M370.72,29.151a2.979,2.979,0,0,0,2.728-.041l1.231.41a.324.324,0,0,0,.41-.41l-.41-1.21a3,3,0,0,0-.533-3.487,2.939,2.939,0,0,0-3.425-.533,3.885,3.885,0,0,1,0,5.271Z" transform="translate(-360.212 -23.552)"/><path class="a" d="M210.344,29.49l1.231-.41a2.937,2.937,0,0,0,3.467-.513,2.959,2.959,0,1,0-4.184-4.184,2.937,2.937,0,0,0-.513,3.466l-.41,1.231a.32.32,0,0,0,.41.41Z" transform="translate(-205.293 -23.521)"/></svg>