<svg xmlns="http://www.w3.org/2000/svg" width="17.297" height="21.697" viewBox="0 0 17.297 21.697"><defs><style>.a{fill:#013145;}</style></defs><path class="a" d="M188.882,24.077a1.134,1.134,0,0,0-.816.421,1.158,1.158,0,0,0,.053,1.5l-.289.289a.746.746,0,0,0-.342-.105.658.658,0,0,0-.474.211l-.921.921a.436.436,0,0,0-.526.026l-.895.895a.374.374,0,0,0-.026.526l-.316.316-.026.895a6.151,6.151,0,0,0-.474,4.579.6.6,0,0,0,.342.421.663.663,0,0,0,.553.053l.421-.132a1.019,1.019,0,0,0,.29-.158.721.721,0,0,0,.211-.474v-.605a2.118,2.118,0,0,1,.711-1.947l.5-.5L190.25,34.6a3.685,3.685,0,0,0-.605,2.053,3.92,3.92,0,0,0,1.105,2.684.255.255,0,0,1,0,.368l-2.579,2.579a.391.391,0,1,0,.553.553l2.579-2.579a1.049,1.049,0,0,0,0-1.5,3.05,3.05,0,0,1,0-4.263l1.605-1.605a.688.688,0,0,1,.974.974l-1.053,1.053-.921.921a1.374,1.374,0,0,0,0,1.947,1.235,1.235,0,0,0,.737.368,1.381,1.381,0,0,0,1.658,1.658,1.236,1.236,0,0,0,.368.737,1.285,1.285,0,0,0,.605.342c.5.5.974.921,1.368,1.29a1.605,1.605,0,0,1-2.105-.132l-.289-.289L190.987,45.1a.391.391,0,0,0,.553.553l2.763-2.763a2.377,2.377,0,0,0,2.947-.158c.263.211.474.395.553.474l.737.632,1.921-1.921a1.465,1.465,0,0,0,.421-1.105,1.251,1.251,0,0,0-.553-.974c-.026-.026-.105-.053-.132-.105a2.8,2.8,0,0,0-.289-3.632L197.75,34a2.792,2.792,0,0,0-2.895-.658,1.487,1.487,0,0,0-.421-.947,1.461,1.461,0,0,0-2.079,0l-.342.342-3.342-3.369.658-.658a.634.634,0,0,0,.184-.474.506.506,0,0,0-.105-.316l.289-.289a1.128,1.128,0,0,0,1.5.053,1.239,1.239,0,0,0,.421-.816,1.112,1.112,0,0,0-.342-.868l-1.553-1.553a1.048,1.048,0,0,0-.843-.369Zm11.237,16.816a.578.578,0,0,1-.184.474l-1.421,1.421-.158-.132c-.289-.237-1.053-.895-2-1.816l.316-.237.079-.079a1.5,1.5,0,0,0,.342.526,1.374,1.374,0,0,0,1.947,0l.711-.711c.053.053.158.105.211.158a.9.9,0,0,1,.158.4ZM197.2,34.524l2.158,2.158a2.033,2.033,0,0,1,0,2.868l-.947.947a.577.577,0,0,1-.816-.816l.947-.947a.391.391,0,1,0-.553-.553l-1.868,1.868a.577.577,0,0,1-.816-.816L197.2,37.34a.391.391,0,1,0-.553-.553l-2.184,2.184a.613.613,0,0,1-.842-.026.606.606,0,0,1,0-.816l2.184-2.184a.391.391,0,0,0-.553-.553l-1.895,1.895a.577.577,0,1,1-.816-.816l1.895-1.895a1.866,1.866,0,0,1,2.763-.053Zm-5.737-1.289-.737.737-3.316-3.342.737-.737Zm-.711-6.684a.338.338,0,0,1,.105.263.247.247,0,0,1-.132.237.36.36,0,0,1-.474-.026l-.053-.053a.652.652,0,0,0-.895,0l-.474.447a.783.783,0,0,0-.211.474.637.637,0,0,0,.105.342l-2.947,2.947a2.935,2.935,0,0,0-.947,2.474v.474l-.263.079a5.548,5.548,0,0,1,.474-3.947l.026-.079.026-.79L187.486,27a.747.747,0,0,0,.316.105.634.634,0,0,0,.474-.184l.474-.474a.652.652,0,0,0,0-.895L188.7,25.5a.335.335,0,0,1-.026-.474.364.364,0,0,1,.237-.132.338.338,0,0,1,.263.105Z" transform="translate(-183.588 -24.077)"/></svg>