<svg xmlns="http://www.w3.org/2000/svg" width="25.65" height="20.521" viewBox="0 0 25.65 20.521"><defs><style>.a{fill:#022d3d;}</style></defs><path class="a" d="M9.623,18.226a1.366,1.366,0,0,0,.215.709l.685,1.03a1.44,1.44,0,0,0,1.068.572h2.474a1.43,1.43,0,0,0,1.067-.572l.685-1.03a1.483,1.483,0,0,0,.215-.709V16.689H9.623ZM12.8.015A7.025,7.025,0,0,0,7.515,11.673a11.469,11.469,0,0,1,2.094,3.666c0,.01,0,.02,0,.03h6.425c0-.01,0-.02,0-.031a11.457,11.457,0,0,1,2.094-3.666A7.025,7.025,0,0,0,12.8.015Zm.02,3.847a3.2,3.2,0,0,0-3.206,3.17.641.641,0,0,1-1.282,0A4.485,4.485,0,0,1,12.825,2.58a.641.641,0,1,1,0,1.282ZM4.489,7.709a.962.962,0,0,0-.962-.962H.962a.962.962,0,0,0,0,1.924H3.527A.962.962,0,0,0,4.489,7.709Zm20.2-.962H22.123a.962.962,0,0,0,0,1.924h2.565a.962.962,0,0,0,0-1.924ZM5.254,2.229,3.03.946A.964.964,0,0,0,2.058.931a.963.963,0,0,0,.01,1.678L4.292,3.892a.964.964,0,0,0,.972.015.976.976,0,0,0,.486-.842A.965.965,0,0,0,5.254,2.229ZM23.582,12.811l-2.224-1.282a.964.964,0,0,0-.972-.015.963.963,0,0,0,.01,1.678l2.224,1.282a.961.961,0,0,0,.961-1.663ZM4.292,11.529,2.069,12.811a.961.961,0,1,0,.962,1.663l2.224-1.282a.961.961,0,0,0-.963-1.663ZM20.881,4.022a.977.977,0,0,0,.481-.13l2.22-1.282A.961.961,0,0,0,22.619.946L20.4,2.229a.96.96,0,0,0,.481,1.793Z" transform="translate(0 -0.015)"/></svg>