<svg xmlns="http://www.w3.org/2000/svg" width="27.038" height="35.628" viewBox="0 0 27.038 35.628"><defs><style>.a{fill:#9d9d9d;stroke:#063347;}</style></defs><path class="a" d="M7.595,13.019a5.425,5.425,0,1,1,5.425,5.425A5.423,5.423,0,0,1,7.595,13.019Zm5.425-4.34a4.34,4.34,0,1,0,4.34,4.34A4.344,4.344,0,0,0,13.019,8.679Zm13.019,4.34c0,5.926-7.934,16.477-11.412,20.831a2.049,2.049,0,0,1-3.214,0C7.873,29.5,0,18.946,0,13.019a13.019,13.019,0,0,1,26.038,0ZM13.019,1.085A11.934,11.934,0,0,0,1.085,13.019a12.9,12.9,0,0,0,1.208,4.719,43.133,43.133,0,0,0,3.031,5.716,111.076,111.076,0,0,0,6.935,9.717.962.962,0,0,0,1.519,0,111.338,111.338,0,0,0,6.937-9.717,43.535,43.535,0,0,0,3.031-5.716,12.961,12.961,0,0,0,1.207-4.719A11.934,11.934,0,0,0,13.019,1.085Z" transform="translate(0.5 0.5)"/></svg>