<?xml version="1.0" encoding="UTF-8"?> <svg xmlns="http://www.w3.org/2000/svg" xmlns:xlink="http://www.w3.org/1999/xlink" width="196px" height="43px" viewBox="0 0 196 43" version="1.1"><title>SkillUp Logo</title><g id="HP---Training" stroke="none" stroke-width="1" fill="none" fill-rule="evenodd"><g id="HP-training-program_v3-Copy" transform="translate(-174.000000, -18.000000)"><g id="SkillUp-Logo" transform="translate(174.000000, 18.000000)"><path d="M15.6818092,6 C19.4310661,6 22.5533995,6.91070614 24.9624189,8.70638543 C27.2747447,10.4304949 28.9193295,12.9575536 29.8509967,16.2180022 L29.8509967,16.2180022 L29.9671083,16.6236987 L29.5605194,16.7157745 L21.9831447,18.4242029 L21.8884324,18.0534872 C21.0237375,14.6687966 19.0407249,13.1589946 15.459493,13.1589946 C12.2697912,13.1589946 10.2883637,14.650301 10.2883637,17.0511073 C10.2883637,19.7574928 13.1122941,20.2315425 17.0204615,20.8869292 C18.7898762,21.1836626 20.7950808,21.5202017 22.7376722,22.1341744 C24.9996698,22.8229336 26.4904958,23.6190476 27.5715626,24.7159158 C29.1828593,26.3507639 30,28.5565626 30,31.2717937 C30,34.8518941 28.6684808,37.8312903 26.1496902,39.887516 C23.6554694,41.9236378 20.0512529,43 15.7261931,43 C11.4859385,43 8.01289249,42.1693073 5.40374886,40.5308405 C2.65749046,38.806731 0.867468925,36.1924214 0.0836162371,32.7610897 L0.0836162371,32.7610897 L0,32.3939927 L8.03785847,30.0567147 L8.14010013,30.4475343 C9.07255987,34.0264285 11.7145952,35.8410054 15.9932896,35.8410054 C20.5981269,35.8410054 21.5646672,33.7244681 21.5646672,31.9488927 C21.5646672,29.8070244 19.755624,29.3864511 15.6631838,28.6385864 C13.7832054,28.295212 11.6523784,27.9055987 9.2520772,27.1826628 C7.1061913,26.5393384 5.49449824,25.6503445 4.32624863,24.4646172 C2.66224588,22.7762926 1.85342721,20.6022582 1.85342721,17.8186738 C1.85342721,14.1360436 3.24755954,11.0814588 5.88523572,8.98502532 C8.34220573,7.03213362 11.7300503,6 15.6818092,6 Z M42.5886939,6 L42.5886939,21.894147 L54.4966548,6 L64.0497358,6 L53.6678468,20.0357794 L65,42 L55.6272876,42 L55.5171296,41.779248 L47.4138573,25.5549855 L42.5886939,31.5991359 L42.5886939,42 L34,42 L34,6 L42.5886939,6 Z M76,6 L76,42 L67,42 L67,6 L76,6 Z M90.3839722,6 L90.3839722,34.8338621 L104,34.8338621 L104,42 L82,42 L82,6 L90.3839722,6 Z M116.384366,6 L116.384366,34.8338621 L130,34.8338621 L130,42 L108,42 L108,6 L116.384366,6 Z" id="Combined-Shape" fill="#003346"></path><path d="M157.259852,0 L166,13.596627 L161.503654,13.596627 L161.503654,27.8690921 C161.503654,32.8395524 160.172565,36.6642182 157.546982,39.2371388 C154.998208,41.7338068 151.289657,43 146.522267,43 C141.390537,43 137.478503,41.7719331 134.894742,39.3495109 C132.310178,36.9262861 131,33.2609479 131,28.4550325 L131,28.4550325 L131,6.6997872 L139.559988,6.6997872 L139.559988,27.5985963 C139.559988,32.9033637 141.73477,35.2687971 146.613151,35.2687971 C148.87922,35.2687971 150.476124,34.6808501 151.496358,33.472047 C152.53147,32.2451841 153.03455,30.3244232 153.03455,27.5985963 L153.03455,27.5985963 L153.03455,13.596627 L148.520107,13.596627 L157.259852,0 Z M182.20208,7 C186.623807,7 190.055763,7.92660726 192.404217,9.7534373 C194.790324,11.6105898 196,14.3403992 196,17.86765 C196,21.6981255 194.786719,24.7130448 192.394604,26.8281352 C189.968843,28.9739418 186.463986,30.0620063 181.977369,30.0620063 L181.977369,30.0620063 L176.525814,30.0620063 L176.525814,42 L168,42 L168,7 Z M181.842382,13.8347623 L176.525814,13.8347623 L176.525814,23.3154549 L181.932106,23.3154549 C185.640044,23.3154549 187.293535,21.7579829 187.293535,18.2657801 C187.293535,15.2843336 185.511065,13.8347623 181.842382,13.8347623 L181.842382,13.8347623 Z" id="Combined-Shape" fill="#009DA7"></path></g></g></g></svg> 