<svg version="1.2" xmlns="http://www.w3.org/2000/svg" viewBox="0 0 1555 609" width="1555" height="609">
	<title>logo-top-nav-svg</title>
	<style>
		.s0 { fill: #17475f } 
		.s1 { fill: #008540 } 
		.s2 { fill: #f1bd19 } 
	</style>
	<g id="bh_logo">
		<path id="Layer" fill-rule="evenodd" class="s0" d="m61.9 556.2h-61.9v-154.8h61.4c23.8 0 52.7 8.7 52.7 39.6 0 17.3-10.1 28.4-25.3 33.5v0.5c17.7 3.1 31.4 15.8 31.4 36.1 0.5 33.4-28.9 45.1-58.3 45.1zm-7.1-124.8h-18.8v31.9h20.3c14.2 0 21.8-6 21.8-16.7 0-10.7-8.1-15.2-23.3-15.2zm2 59.4h-20.8v35.5h20.8c11.7 0 26.4-3.1 26.4-18.3 0-13.2-10.2-17.2-26.4-17.2zm147.6-14.3c-3-1-6.1-1-9.1-1-19.3 0-25.4 15.8-25.4 24.9v55.8h-36v-108.6h34.5v15.7h0.5c5.6-11.1 16.2-18.7 29.4-18.7 3.1 0 6.1 0 7.6 1zm25.4-44.2c-11.2 0-20.3-8.8-20.3-19.8 0-10.9 9.1-19.8 20.3-19.8 11.2 0 20.3 8.9 20.3 19.8 0 11-9.1 19.8-20.3 19.8zm-17.8 15.3h35.5v108.6h-35.5zm106 160.8c-18.7 0-41.1-6.1-55.8-17.2l17.8-25.4c10.6 9.1 23.8 13.7 36 13.7 20.8 0 30.9-12.2 30.9-30.4v-6.1h-0.5c-6.6 8.6-18.7 14.2-32.9 14.2-33 0-51.8-25.9-51.8-55.8 0-30 18.8-56.9 51.8-56.9 13.7 0 26.8 5.6 34.5 17.3h0.5v-14.2h33.9v98.4c-0.5 42.1-25.8 62.4-64.4 62.4zm30-107.3c0-15.3-11.6-27.7-25.9-27.7-14.3 0-25.9 12.4-25.9 27.7 0 15.3 11.6 27.7 25.9 27.7 14.3 0 25.9-12.4 25.9-27.7zm124.7 55.1v-58.9c0-12.2-3-22.8-15.7-22.8-12.7 0-19.3 10.1-19.3 23.3v58.9h-36v-165.5h36v70.1h0.5c4.6-8.7 16.3-16.8 31-16.8 29.4 0 39.5 22.9 39.5 44.7v67zm92.8-40.1c0 10.1 3.1 15.2 13.7 15.2 3.6 0 7.6-0.5 10.7-1.5l0.5 26.4c-4.6 1.5-13.2 3-20.8 3-28.9 0-38.6-15.7-38.6-38.6v-45.6h-17.2v-26.9h17.2v-28.4h35v28.4h25.4v26.9h-25.9zm177.5-24.4h-60.3v64.5h-37.5v-154.8h37.5v58.3h60.3v-58.3h37.6v154.3h-37.6zm113.1 68c-32.9 0-60.3-22.9-60.3-58.4 0-35.5 27.4-57.4 60.3-57.4 33 0 60.4 21.9 60.4 57.4 0 35.5-27.4 58.4-60.4 58.4zm0-86.3c-16.7 0-25.3 13.7-25.3 27.9 0 14.2 9.1 27.9 25.8 27.9 16.8 0 25.9-14.2 25.9-27.9 0-13.7-9.6-27.9-26.4-27.9zm144.1 3c-3.1-1-6.1-1-9.2-1-19.2 0-25.3 15.7-25.3 24.9v55.8h-36v-108.6h34.5v15.7h0.5c5.6-11.1 16.2-18.7 29.4-18.7 3 0 6.1 0 7.6 1zm25.4-44.2c-11.3 0-20.3-8.8-20.3-19.8 0-10.9 9-19.8 20.3-19.8 11.2 0 20.2 8.9 20.2 19.8 0 11-9 19.8-20.2 19.8zm-17.8 15.2h36v108.6h-36zm48.2 80.7l51.2-53.2h-49.2v-27.5h92.8v26.9l-52.7 54.3h54.8v28h-96.9zm163.8 31.4c-33 0-60.4-22.8-60.4-58.3 0-35.6 27.4-57.4 60.4-57.4 33 0 60.4 21.8 60.4 57.4 0 35.5-27.4 58.3-60.4 58.3zm0-86.3c-16.7 0-25.4 13.8-25.4 28 0 14.2 9.2 27.9 25.9 27.9 16.7 0 25.9-14.2 25.9-27.9 0-13.7-9.7-28-26.4-28zm145.1 82.8v-59.4c0-12.2-3.1-22.8-16.3-22.8-12.7 0-19.3 11.1-19.3 23.3v58.9h-36v-108.6h34.5v15.2h0.5c5.1-9.7 17.3-18.3 32.5-18.3 29.4 0 39.6 22.9 39.6 44.7v67zm118.1-76.7c-5.6-5.5-14.2-9.6-22.8-9.6-6.6 0-13.7 2.5-13.7 8.6 0 6.1 6.1 7.6 19.8 11.2 16.7 3.5 34.5 12.2 34.5 33 0 27.4-24.4 37-46.7 37-17.7 0-36-6.1-47.2-16.7l20.3-21.3c6.1 7.1 16.3 12.1 26.4 12.1 6.1 0 12.7-2.5 12.7-9.1 0-6.6-6.6-9.1-21.8-12.7-15.2-3.5-31.5-11.1-31.5-31.4 0-25.9 24.4-36.6 45.2-36.6 16.2 0 32.9 5.1 43.6 15.2z"/>
		<g id="Layer">
			<path id="Layer" class="s0" d="m1529.1 540.5h-6.1v16.2h-4v-16.2h-6.1v-3.6h15.7v3.6zm25.9 16.2h-4.1v-14.2l-5.6 14.2h-2.5l-5.6-14.2v14.2h-4v-19.3h5.5l5.1 13.7 5.1-13.7h5.6v19.3z"/>
		</g>
		<g id="Layer">
			<path id="SVGID_15_" fill-rule="evenodd" class="s1" d="m2 346.6c167.4 16.8 283-71.5 425.6-71.5 104.4 0 163.8 45.1 243.4 54.3v3.5c-93.8 1.5-152.2-24.3-244.5-24.3-111.5 0-235.3 54.3-326.1 54.8-70 0.5-95.3-12.7-98.4-13.2z"/>
			<path id="SVGID_17_" fill-rule="evenodd" class="s2" d="m285 135c-116.6 26.9-128.3 136-124.7 179.7 12.7-2.6 25.3-6.1 36.5-9.7-0.5-39.6 13.7-112.7 97.9-133.5 87.7-21.3 137.9 47.2 152.6 84.3 13.2 0.5 25.4 1.5 38.1 4-1-28.4-69-155.8-200.4-124.8z"/>
			<path id="SVGID_19_" fill-rule="evenodd" class="s2" d="m22.3 253.8c1-5.6 5.1-12.7 17.3-10.7 17.2 3 85.7 20.3 83.7 30.4-1.1 5.6-9.7 13.2-87.3-2.5-14.7-2.5-14.2-13.7-13.7-17.3z"/>
			<g id="Layer">
				<path id="SVGID_21_" fill-rule="evenodd" class="s2" d="m91.3 103.5c2.5-4.5 10.1-9.6 20.8-3 14.7 9.1 71.5 49.2 63.9 60.9-1 1.5-8.6 1-78.6-36.6-13.2-6.6-8.1-17.7-6.1-21.3z"/>
			</g>
			<g id="Layer">
				<path id="SVGID_23_" fill-rule="evenodd" class="s2" d="m264.2 0.5c5.6-1.5 14.2 1.5 16.8 14.2 3.5 16.8 13.2 85.3 0.5 86.8-1 0-4.1-1.5-9.1-12.7-5.1-11.7-12.7-43.6-19.8-67.5-3.6-14.7 8.1-20.3 11.6-20.8z"/>
			</g>
			<g id="Layer">
				<path id="SVGID_25_" fill-rule="evenodd" class="s2" d="m461 29.4c5.6 3.1 10.7 11.2 2.6 22.4-10.7 13.7-46.2 71.5-56.3 64.4-1-0.5-3.1-5.6 0-17.2 3-11.7 18.7-37.6 32.9-62.5 7.1-12.6 16.8-9.1 20.8-7.1z"/>
			</g>
			<g id="Layer">
				<path id="SVGID_27_" fill-rule="evenodd" class="s2" d="m585.3 141.6c3.5 5.6 4 15.7-8.1 21.3-15.8 7.6-74.1 41.1-80.2 29.9-0.5-1 0-6 9.2-14.2 9.6-8.1 32.9-24.8 56.8-40.1 12.1-7.6 19.7-0.5 22.3 3.1z"/>
			</g>
		</g>
	</g>
</svg>